<?xml version="1.0" encoding="UTF-8"?><svg enable-background="new 0 0 48 48" version="1.1" viewBox="0 0 48 48" xml:space="preserve" xmlns="http://www.w3.org/2000/svg"><linearGradient id="b" x1="2.7102" x2="46.625" y1="2.9578" y2="46.362" gradientUnits="userSpaceOnUse"><stop stop-color="#F0F0F0" offset="0"/><stop stop-color="#BBC1C4" offset="1"/></linearGradient><path d="M6,8c0-1.1,0.9-2,2-2h32c1.1,0,2,0.9,2,2v32c0,1.1-0.9,2-2,2H8c-1.1,0-2-0.9-2-2V8z" fill="url(#b)"/><circle cx="16" cy="24" r="8" opacity=".05"/><circle cx="16" cy="24" r="7.5" opacity=".07"/><circle cx="32" cy="24" r="8" opacity=".05"/><circle cx="32" cy="24" r="7.5" opacity=".07"/><linearGradient id="a" x1="11.232" x2="20.768" y1="18.875" y2="29.125" gradientUnits="userSpaceOnUse"><stop stop-color="#0D61A9" offset="0"/><stop stop-color="#16528C" offset="1"/></linearGradient><path d="m16 17c-3.866 0-7 3.134-7 7s3.134 7 7 7 7-3.134 7-7-3.134-7-7-7z" fill="url(#a)"/><path d="m32 17c-3.866 0-7 3.134-7 7s3.134 7 7 7 7-3.134 7-7-3.134-7-7-7z" fill="#ED3675"/></svg>