<?xml version="1.0" encoding="iso-8859-1"?>
<!-- Generator: Adobe Illustrator 23.0.3, SVG Export Plug-In . SVG Version: 6.00 Build 0)  -->
<svg version="1.1" id="Layer_1" xmlns="http://www.w3.org/2000/svg" xmlns:xlink="http://www.w3.org/1999/xlink" x="0px" y="0px"
	 viewBox="0 0 48 48" style="enable-background:new 0 0 48 48;" xml:space="preserve">
<linearGradient id="SVGID_1_" gradientUnits="userSpaceOnUse" x1="2.7102" y1="2.9578" x2="46.6251" y2="46.362">
	<stop  offset="0" style="stop-color:#F0F0F0"/>
	<stop  offset="1" style="stop-color:#BBC1C4"/>
</linearGradient>
<path style="fill:url(#SVGID_1_);" d="M6,8c0-1.1,0.9-2,2-2h32c1.1,0,2,0.9,2,2v32c0,1.1-0.9,2-2,2H8c-1.1,0-2-0.9-2-2V8z"/>
<g>
	<circle style="opacity:0.05;" cx="16" cy="24" r="8"/>
	<circle style="opacity:0.07;" cx="16" cy="24" r="7.5"/>
	<circle style="opacity:0.05;" cx="32" cy="24" r="8"/>
	<circle style="opacity:0.07;" cx="32" cy="24" r="7.5"/>
</g>
<linearGradient id="SVGID_2_" gradientUnits="userSpaceOnUse" x1="11.2323" y1="18.8747" x2="20.7677" y2="29.1253">
	<stop  offset="0" style="stop-color:#0D61A9"/>
	<stop  offset="1" style="stop-color:#16528C"/>
</linearGradient>
<path style="fill:url(#SVGID_2_);" d="M16,17c-3.866,0-7,3.134-7,7s3.134,7,7,7s7-3.134,7-7S19.866,17,16,17z"/>
<path style="fill:#ED3675;" d="M32,17c-3.866,0-7,3.134-7,7s3.134,7,7,7s7-3.134,7-7S35.866,17,32,17z"/>
</svg>