<?xml version="1.0" encoding="UTF-8"?><svg viewBox="0 0 48 48" xmlns="http://www.w3.org/2000/svg"><radialGradient id="b" cx="19.38" cy="42.035" r="44.899" gradientUnits="userSpaceOnUse"><stop stop-color="#fd5" offset="0"/><stop stop-color="#ff543f" offset=".328"/><stop stop-color="#fc5245" offset=".348"/><stop stop-color="#e64771" offset=".504"/><stop stop-color="#d53e91" offset=".643"/><stop stop-color="#cc39a4" offset=".761"/><stop stop-color="#c837ab" offset=".841"/></radialGradient><path d="m34.017 41.99-20 0.019c-4.4 4e-3 -8.003-3.592-8.008-7.992l-0.019-20c-4e-3 -4.4 3.592-8.003 7.992-8.008l20-0.019c4.4-4e-3 8.003 3.592 8.008 7.992l0.019 20c5e-3 4.401-3.592 8.004-7.992 8.008z" fill="url(#b)"/><radialGradient id="a" cx="11.786" cy="5.54" r="29.813" gradientTransform="matrix(1 0 0 .6663 0 1.849)" gradientUnits="userSpaceOnUse"><stop stop-color="#4168c9" offset="0"/><stop stop-color="#4168c9" stop-opacity="0" offset=".999"/></radialGradient><path d="m34.017 41.99-20 0.019c-4.4 4e-3 -8.003-3.592-8.008-7.992l-0.019-20c-4e-3 -4.4 3.592-8.003 7.992-8.008l20-0.019c4.4-4e-3 8.003 3.592 8.008 7.992l0.019 20c5e-3 4.401-3.592 8.004-7.992 8.008z" fill="url(#a)"/><path d="m24 31c-3.859 0-7-3.14-7-7s3.141-7 7-7 7 3.14 7 7-3.141 7-7 7zm0-12c-2.757 0-5 2.243-5 5s2.243 5 5 5 5-2.243 5-5-2.243-5-5-5z" fill="#fff"/><circle cx="31.5" cy="16.5" r="1.5" fill="#fff"/><path d="m30 37h-12c-3.859 0-7-3.14-7-7v-12c0-3.86 3.141-7 7-7h12c3.859 0 7 3.14 7 7v12c0 3.86-3.141 7-7 7zm-12-24c-2.757 0-5 2.243-5 5v12c0 2.757 2.243 5 5 5h12c2.757 0 5-2.243 5-5v-12c0-2.757-2.243-5-5-5h-12z" fill="#fff"/></svg>