<?xml version="1.0" encoding="UTF-8"?><svg enable-background="new 0 0 48 48" version="1.1" viewBox="0 0 48 48" xml:space="preserve" xmlns="http://www.w3.org/2000/svg"><linearGradient id="a" x1="6.8252" x2="41.469" y1="5.5371" y2="42.78" gradientUnits="userSpaceOnUse"><stop stop-color="#0D61A9" offset="0"/><stop stop-color="#16528C" offset="1"/></linearGradient><path d="m42 38c0 2.209-1.791 4-4 4h-28c-2.209 0-4-1.791-4-4v-28c0-2.209 1.791-4 4-4h28c2.209 0 4 1.791 4 4v28z" fill="url(#a)"/><path d="M24.947,38c-6.7,0-6.894-7.308-6.894-8.141L18.007,23h-1.679C15.596,23,15,22.403,15,21.671V18.57  c0-0.541,0.336-1.038,0.837-1.238c0.047-0.02,4.542-1.875,4.542-6.004c0-0.732,0.596-1.329,1.327-1.329h2.966  C25.405,10.004,26,10.601,26,11.329V17h4.67c0.733,0,1.33,0.596,1.33,1.328v3.345C32,22.404,31.403,23,30.67,23H26v6.676  c0.048,0.313,0.327,1.555,1.76,1.555c1.691,0,3.206-0.901,3.222-0.91c0.194-0.124,0.442-0.195,0.69-0.195  c0.22,0,0.438,0.055,0.632,0.159C32.735,30.521,33,30.97,33,31.455v3.436c0,0.388-0.166,0.753-0.455,1.003  C32.301,36.107,29.996,38,24.947,38z" opacity=".05"/><path d="m24.947 37.5c-6.214 0-6.394-6.858-6.394-7.641l-0.05-7.359h-2.175c-0.457 0-0.828-0.372-0.828-0.829v-3.101c0-0.338 0.21-0.649 0.522-0.774 0.053-0.021 4.856-1.979 4.856-6.468 0-0.457 0.371-0.829 0.827-0.829h2.966c0.458 3e-3 0.828 0.375 0.828 0.83v6.171h5.17c0.458 0 0.83 0.371 0.83 0.828v3.345c0 0.456-0.372 0.827-0.83 0.827h-5.169v7.211c2e-3 0 0.211 2.02 2.26 2.02 1.827 0 3.413-0.942 3.479-0.982 0.123-0.078 0.275-0.123 0.433-0.123 0.137 0 0.273 0.034 0.396 0.1 0.27 0.148 0.433 0.427 0.433 0.73v3.436c0 0.242-0.103 0.47-0.282 0.625-0.231 0.2-2.403 1.983-7.272 1.983z" opacity=".07"/><path d="M32,34.891c0,0.095-0.037,0.184-0.109,0.247C31.803,35.215,29.723,37,24.947,37  c-5.726,0-5.893-6.409-5.893-7.141L19,22h-2.672C16.146,22,16,21.853,16,21.671V18.57c0-0.135,0.083-0.259,0.208-0.309  c0.052-0.02,5.171-2.083,5.171-6.933c0-0.183,0.146-0.329,0.327-0.329h2.966C24.854,11,25,11.146,25,11.329V18h5.67  c0.182,0,0.33,0.146,0.33,0.328v3.345C31,21.856,30.852,22,30.67,22H25v7.711c0,0.101,0.316,2.519,2.76,2.519  c2.023,0,3.721-1.044,3.74-1.055c0.1-0.064,0.227-0.066,0.333-0.009C31.936,31.223,32,31.334,32,31.455V34.891L32,34.891z" fill="#fff"/></svg>